# xmcd
#
# Track frame offsets:
#	150
#	13646
#	30791
#	48967
#	61599
#	75707
#	89593
#	105847
#	118813
#	129132
#	140594
#	151582
#	161734
#	174533
#	185688
#	198710
#
# Disc length: 2918 seconds
# Revision: 0
# Processed by: cddbd v1.5.2PL0 Copyright (c) Steve Scherf et al.
# Submitted via: dBpowerAMP V12.0
#
DISCID=c20b6410
DTITLE=Skip Bessonette - Hard Workin' Man
DYEAR=2004
DGENRE=Country
TTITLE0=Hard Workin' Man
TTITLE1=That Lucky Old Sun
TTITLE2=Penny Ante Memories
TTITLE3=Ole Buttermilk Sky
TTITLE4=Firehouse Café
TTITLE5=Along the Santa Fe Trail
TTITLE6=Brand New Leather
TTITLE7=Sweet Hour of Prayer
TTITLE8=Twilight On the Trail
TTITLE9=When My Blue Moon Turns to Gold
TTITLE10=Roll Along, Prairie Moon
TTITLE11=Sixteen Tons
TTITLE12=Old Man River
TTITLE13=Roll On Columbia
TTITLE14=The Colorado Trail
TTITLE15=Softly and Tenderly
EXTD=
EXTT0=
EXTT1=
EXTT2=
EXTT3=
EXTT4=
EXTT5=
EXTT6=
EXTT7=
EXTT8=
EXTT9=
EXTT10=
EXTT11=
EXTT12=
EXTT13=
EXTT14=
EXTT15=
PLAYORDER=
